<mxfile host="Electron" modified="2024-05-15T09:11:00.111Z" agent="Mozilla/5.0 (Windows NT 10.0; Win64; x64) AppleWebKit/537.36 (KHTML, like Gecko) draw.io/24.2.5 Chrome/120.0.6099.109 Electron/28.1.0 Safari/537.36" etag="7bawrevGbbY5tmMxMnm1" version="24.2.5" type="device">
  <diagram name="페이지-1" id="0MCgnz0HtFP2cZSvJgvZ">
    <mxGraphModel dx="2664" dy="1011" grid="1" gridSize="10" guides="1" tooltips="1" connect="1" arrows="1" fold="1" page="1" pageScale="1" pageWidth="827" pageHeight="1169" math="0" shadow="0">
      <root>
        <mxCell id="0" />
        <mxCell id="1" parent="0" />
        <mxCell id="EiC9moipADHDzp91dUvz-6" value="" style="edgeStyle=orthogonalEdgeStyle;rounded=0;orthogonalLoop=1;jettySize=auto;html=1;" parent="1" source="EiC9moipADHDzp91dUvz-2" target="EiC9moipADHDzp91dUvz-5" edge="1">
          <mxGeometry relative="1" as="geometry" />
        </mxCell>
        <mxCell id="EiC9moipADHDzp91dUvz-2" value="start" style="rounded=1;whiteSpace=wrap;html=1;" parent="1" vertex="1">
          <mxGeometry x="320" y="140" width="120" height="60" as="geometry" />
        </mxCell>
        <mxCell id="kNfA8dKr2ghfX7-vtaWR-2" value="" style="edgeStyle=orthogonalEdgeStyle;rounded=0;orthogonalLoop=1;jettySize=auto;html=1;" edge="1" parent="1" source="EiC9moipADHDzp91dUvz-5" target="kNfA8dKr2ghfX7-vtaWR-1">
          <mxGeometry relative="1" as="geometry" />
        </mxCell>
        <mxCell id="EiC9moipADHDzp91dUvz-5" value="parsing Input&lt;div&gt;using getopt()&lt;/div&gt;" style="rounded=0;whiteSpace=wrap;html=1;" parent="1" vertex="1">
          <mxGeometry x="320" y="230" width="120" height="60" as="geometry" />
        </mxCell>
        <mxCell id="EiC9moipADHDzp91dUvz-43" value="" style="edgeStyle=orthogonalEdgeStyle;rounded=0;orthogonalLoop=1;jettySize=auto;html=1;" parent="1" source="EiC9moipADHDzp91dUvz-17" target="EiC9moipADHDzp91dUvz-42" edge="1">
          <mxGeometry relative="1" as="geometry" />
        </mxCell>
        <mxCell id="EiC9moipADHDzp91dUvz-17" value="write error&lt;div&gt;to result_buff&lt;/div&gt;" style="shape=parallelogram;perimeter=parallelogramPerimeter;whiteSpace=wrap;html=1;fixedSize=1;" parent="1" vertex="1">
          <mxGeometry x="300" y="1120" width="120" height="60" as="geometry" />
        </mxCell>
        <mxCell id="EiC9moipADHDzp91dUvz-36" style="edgeStyle=orthogonalEdgeStyle;rounded=0;orthogonalLoop=1;jettySize=auto;html=1;entryX=0.5;entryY=0;entryDx=0;entryDy=0;" parent="1" source="EiC9moipADHDzp91dUvz-29" edge="1">
          <mxGeometry relative="1" as="geometry">
            <Array as="points">
              <mxPoint x="380" y="520" />
              <mxPoint x="-80" y="520" />
            </Array>
            <mxPoint x="-80" y="540" as="targetPoint" />
          </mxGeometry>
        </mxCell>
        <mxCell id="EiC9moipADHDzp91dUvz-52" value="NLST" style="edgeLabel;html=1;align=center;verticalAlign=middle;resizable=0;points=[];" parent="EiC9moipADHDzp91dUvz-36" vertex="1" connectable="0">
          <mxGeometry x="0.8449" y="4" relative="1" as="geometry">
            <mxPoint as="offset" />
          </mxGeometry>
        </mxCell>
        <mxCell id="EiC9moipADHDzp91dUvz-56" style="edgeStyle=orthogonalEdgeStyle;rounded=0;orthogonalLoop=1;jettySize=auto;html=1;entryX=0.5;entryY=0;entryDx=0;entryDy=0;" parent="1" source="EiC9moipADHDzp91dUvz-29" edge="1">
          <mxGeometry relative="1" as="geometry">
            <Array as="points">
              <mxPoint x="380" y="520" />
              <mxPoint x="70" y="520" />
            </Array>
            <mxPoint x="70" y="540" as="targetPoint" />
          </mxGeometry>
        </mxCell>
        <mxCell id="EiC9moipADHDzp91dUvz-57" value="LIST" style="edgeLabel;html=1;align=center;verticalAlign=middle;resizable=0;points=[];" parent="EiC9moipADHDzp91dUvz-56" vertex="1" connectable="0">
          <mxGeometry x="0.8053" y="-1" relative="1" as="geometry">
            <mxPoint as="offset" />
          </mxGeometry>
        </mxCell>
        <mxCell id="EiC9moipADHDzp91dUvz-64" style="edgeStyle=orthogonalEdgeStyle;rounded=0;orthogonalLoop=1;jettySize=auto;html=1;entryX=0.5;entryY=0;entryDx=0;entryDy=0;" parent="1" source="EiC9moipADHDzp91dUvz-29" target="EiC9moipADHDzp91dUvz-66" edge="1">
          <mxGeometry relative="1" as="geometry">
            <mxPoint x="220" y="540" as="targetPoint" />
            <Array as="points">
              <mxPoint x="380" y="520" />
              <mxPoint x="210" y="520" />
            </Array>
          </mxGeometry>
        </mxCell>
        <mxCell id="EiC9moipADHDzp91dUvz-65" value="PWD" style="edgeLabel;html=1;align=center;verticalAlign=middle;resizable=0;points=[];" parent="EiC9moipADHDzp91dUvz-64" vertex="1" connectable="0">
          <mxGeometry x="0.6" y="-2" relative="1" as="geometry">
            <mxPoint as="offset" />
          </mxGeometry>
        </mxCell>
        <mxCell id="EiC9moipADHDzp91dUvz-74" value="" style="edgeStyle=orthogonalEdgeStyle;rounded=0;orthogonalLoop=1;jettySize=auto;html=1;exitX=0.5;exitY=1;exitDx=0;exitDy=0;" parent="1" source="EiC9moipADHDzp91dUvz-29" target="EiC9moipADHDzp91dUvz-72" edge="1">
          <mxGeometry relative="1" as="geometry">
            <Array as="points">
              <mxPoint x="380" y="520" />
              <mxPoint x="360" y="520" />
            </Array>
          </mxGeometry>
        </mxCell>
        <mxCell id="EiC9moipADHDzp91dUvz-75" value="CWD" style="edgeLabel;html=1;align=center;verticalAlign=middle;resizable=0;points=[];" parent="EiC9moipADHDzp91dUvz-74" vertex="1" connectable="0">
          <mxGeometry x="0.0273" y="1" relative="1" as="geometry">
            <mxPoint as="offset" />
          </mxGeometry>
        </mxCell>
        <mxCell id="EiC9moipADHDzp91dUvz-84" style="edgeStyle=orthogonalEdgeStyle;rounded=0;orthogonalLoop=1;jettySize=auto;html=1;entryX=0.5;entryY=0;entryDx=0;entryDy=0;" parent="1" source="EiC9moipADHDzp91dUvz-29" target="EiC9moipADHDzp91dUvz-83" edge="1">
          <mxGeometry relative="1" as="geometry">
            <Array as="points">
              <mxPoint x="380" y="520" />
              <mxPoint x="510" y="520" />
            </Array>
          </mxGeometry>
        </mxCell>
        <mxCell id="EiC9moipADHDzp91dUvz-85" value="CDUP" style="edgeLabel;html=1;align=center;verticalAlign=middle;resizable=0;points=[];" parent="EiC9moipADHDzp91dUvz-84" vertex="1" connectable="0">
          <mxGeometry x="0.4542" y="1" relative="1" as="geometry">
            <mxPoint as="offset" />
          </mxGeometry>
        </mxCell>
        <mxCell id="EiC9moipADHDzp91dUvz-118" style="edgeStyle=orthogonalEdgeStyle;rounded=0;orthogonalLoop=1;jettySize=auto;html=1;entryX=0.5;entryY=0;entryDx=0;entryDy=0;" parent="1" source="EiC9moipADHDzp91dUvz-29" target="EiC9moipADHDzp91dUvz-117" edge="1">
          <mxGeometry relative="1" as="geometry">
            <Array as="points">
              <mxPoint x="380" y="520" />
              <mxPoint x="660" y="520" />
            </Array>
          </mxGeometry>
        </mxCell>
        <mxCell id="EiC9moipADHDzp91dUvz-119" value="MKD" style="edgeLabel;html=1;align=center;verticalAlign=middle;resizable=0;points=[];" parent="EiC9moipADHDzp91dUvz-118" vertex="1" connectable="0">
          <mxGeometry x="0.6744" y="-2" relative="1" as="geometry">
            <mxPoint as="offset" />
          </mxGeometry>
        </mxCell>
        <mxCell id="EiC9moipADHDzp91dUvz-168" style="edgeStyle=orthogonalEdgeStyle;rounded=0;orthogonalLoop=1;jettySize=auto;html=1;entryX=0.5;entryY=0;entryDx=0;entryDy=0;" parent="1" source="EiC9moipADHDzp91dUvz-29" target="EiC9moipADHDzp91dUvz-160" edge="1">
          <mxGeometry relative="1" as="geometry">
            <Array as="points">
              <mxPoint x="380" y="520" />
              <mxPoint x="830" y="520" />
            </Array>
          </mxGeometry>
        </mxCell>
        <mxCell id="EiC9moipADHDzp91dUvz-169" value="DELE" style="edgeLabel;html=1;align=center;verticalAlign=middle;resizable=0;points=[];" parent="EiC9moipADHDzp91dUvz-168" vertex="1" connectable="0">
          <mxGeometry x="0.7834" y="-1" relative="1" as="geometry">
            <mxPoint y="1" as="offset" />
          </mxGeometry>
        </mxCell>
        <mxCell id="EiC9moipADHDzp91dUvz-191" style="edgeStyle=orthogonalEdgeStyle;rounded=0;orthogonalLoop=1;jettySize=auto;html=1;entryX=0.5;entryY=0;entryDx=0;entryDy=0;" parent="1" source="EiC9moipADHDzp91dUvz-29" target="EiC9moipADHDzp91dUvz-183" edge="1">
          <mxGeometry relative="1" as="geometry">
            <Array as="points">
              <mxPoint x="380" y="520" />
              <mxPoint x="1000" y="520" />
            </Array>
          </mxGeometry>
        </mxCell>
        <mxCell id="EiC9moipADHDzp91dUvz-199" style="edgeStyle=orthogonalEdgeStyle;rounded=0;orthogonalLoop=1;jettySize=auto;html=1;entryX=0.5;entryY=0;entryDx=0;entryDy=0;" parent="1" source="EiC9moipADHDzp91dUvz-29" target="EiC9moipADHDzp91dUvz-198" edge="1">
          <mxGeometry relative="1" as="geometry">
            <Array as="points">
              <mxPoint x="380" y="520" />
              <mxPoint x="1150" y="520" />
            </Array>
          </mxGeometry>
        </mxCell>
        <mxCell id="EiC9moipADHDzp91dUvz-200" value="RNFR" style="edgeLabel;html=1;align=center;verticalAlign=middle;resizable=0;points=[];" parent="EiC9moipADHDzp91dUvz-199" vertex="1" connectable="0">
          <mxGeometry x="0.8673" y="-1" relative="1" as="geometry">
            <mxPoint as="offset" />
          </mxGeometry>
        </mxCell>
        <mxCell id="kNfA8dKr2ghfX7-vtaWR-16" value="RMD" style="edgeLabel;html=1;align=center;verticalAlign=middle;resizable=0;points=[];" vertex="1" connectable="0" parent="EiC9moipADHDzp91dUvz-199">
          <mxGeometry x="0.5414" y="4" relative="1" as="geometry">
            <mxPoint as="offset" />
          </mxGeometry>
        </mxCell>
        <mxCell id="EiC9moipADHDzp91dUvz-29" value="command" style="rhombus;whiteSpace=wrap;html=1;" parent="1" vertex="1">
          <mxGeometry x="320" y="430" width="120" height="80" as="geometry" />
        </mxCell>
        <mxCell id="EiC9moipADHDzp91dUvz-46" style="edgeStyle=orthogonalEdgeStyle;rounded=0;orthogonalLoop=1;jettySize=auto;html=1;entryX=0.5;entryY=0;entryDx=0;entryDy=0;" parent="1" source="EiC9moipADHDzp91dUvz-38" target="EiC9moipADHDzp91dUvz-17" edge="1">
          <mxGeometry relative="1" as="geometry">
            <Array as="points">
              <mxPoint y="580" />
              <mxPoint y="1100" />
              <mxPoint x="360" y="1100" />
            </Array>
          </mxGeometry>
        </mxCell>
        <mxCell id="EiC9moipADHDzp91dUvz-47" value="&amp;gt; 1" style="edgeLabel;html=1;align=center;verticalAlign=middle;resizable=0;points=[];" parent="EiC9moipADHDzp91dUvz-46" vertex="1" connectable="0">
          <mxGeometry x="-0.958" relative="1" as="geometry">
            <mxPoint x="-18" y="10" as="offset" />
          </mxGeometry>
        </mxCell>
        <mxCell id="EiC9moipADHDzp91dUvz-49" value="" style="edgeStyle=orthogonalEdgeStyle;rounded=0;orthogonalLoop=1;jettySize=auto;html=1;" parent="1" source="EiC9moipADHDzp91dUvz-38" target="EiC9moipADHDzp91dUvz-48" edge="1">
          <mxGeometry relative="1" as="geometry" />
        </mxCell>
        <mxCell id="EiC9moipADHDzp91dUvz-50" value="&amp;lt;= 1" style="edgeLabel;html=1;align=center;verticalAlign=middle;resizable=0;points=[];" parent="EiC9moipADHDzp91dUvz-49" vertex="1" connectable="0">
          <mxGeometry x="-0.62" relative="1" as="geometry">
            <mxPoint as="offset" />
          </mxGeometry>
        </mxCell>
        <mxCell id="kNfA8dKr2ghfX7-vtaWR-14" value="&amp;lt;= 1" style="edgeLabel;html=1;align=center;verticalAlign=middle;resizable=0;points=[];" vertex="1" connectable="0" parent="EiC9moipADHDzp91dUvz-49">
          <mxGeometry x="-0.62" relative="1" as="geometry">
            <mxPoint x="150" as="offset" />
          </mxGeometry>
        </mxCell>
        <mxCell id="EiC9moipADHDzp91dUvz-38" value="argument except command" style="rhombus;whiteSpace=wrap;html=1;" parent="1" vertex="1">
          <mxGeometry x="-140" y="540" width="120" height="80" as="geometry" />
        </mxCell>
        <mxCell id="EiC9moipADHDzp91dUvz-173" style="edgeStyle=orthogonalEdgeStyle;rounded=0;orthogonalLoop=1;jettySize=auto;html=1;entryX=0.5;entryY=0;entryDx=0;entryDy=0;" parent="1" source="EiC9moipADHDzp91dUvz-42" target="EiC9moipADHDzp91dUvz-172" edge="1">
          <mxGeometry relative="1" as="geometry">
            <Array as="points">
              <mxPoint x="360" y="1280" />
              <mxPoint x="490" y="1280" />
            </Array>
          </mxGeometry>
        </mxCell>
        <mxCell id="EiC9moipADHDzp91dUvz-42" value="exit(1)" style="shape=parallelogram;perimeter=parallelogramPerimeter;whiteSpace=wrap;html=1;fixedSize=1;" parent="1" vertex="1">
          <mxGeometry x="300" y="1200" width="120" height="60" as="geometry" />
        </mxCell>
        <mxCell id="EiC9moipADHDzp91dUvz-96" value="" style="edgeStyle=orthogonalEdgeStyle;rounded=0;orthogonalLoop=1;jettySize=auto;html=1;entryX=0.5;entryY=0;entryDx=0;entryDy=0;" parent="1" source="EiC9moipADHDzp91dUvz-48" target="EiC9moipADHDzp91dUvz-108" edge="1">
          <mxGeometry relative="1" as="geometry">
            <mxPoint x="-80" y="980" as="targetPoint" />
            <Array as="points">
              <mxPoint x="-80" y="820" />
              <mxPoint x="360" y="820" />
            </Array>
          </mxGeometry>
        </mxCell>
        <mxCell id="EiC9moipADHDzp91dUvz-48" value="NLST" style="rounded=0;whiteSpace=wrap;html=1;" parent="1" vertex="1">
          <mxGeometry x="-140" y="650" width="120" height="60" as="geometry" />
        </mxCell>
        <mxCell id="EiC9moipADHDzp91dUvz-61" value="" style="edgeStyle=orthogonalEdgeStyle;rounded=0;orthogonalLoop=1;jettySize=auto;html=1;" parent="1" source="EiC9moipADHDzp91dUvz-58" target="EiC9moipADHDzp91dUvz-60" edge="1">
          <mxGeometry relative="1" as="geometry">
            <Array as="points">
              <mxPoint x="70" y="630" />
              <mxPoint x="70" y="630" />
            </Array>
          </mxGeometry>
        </mxCell>
        <mxCell id="kNfA8dKr2ghfX7-vtaWR-10" style="edgeStyle=orthogonalEdgeStyle;rounded=0;orthogonalLoop=1;jettySize=auto;html=1;entryX=0.5;entryY=0;entryDx=0;entryDy=0;" edge="1" parent="1" source="EiC9moipADHDzp91dUvz-58" target="EiC9moipADHDzp91dUvz-17">
          <mxGeometry relative="1" as="geometry">
            <Array as="points">
              <mxPoint x="140" y="580" />
              <mxPoint x="140" y="1100" />
              <mxPoint x="360" y="1100" />
            </Array>
          </mxGeometry>
        </mxCell>
        <mxCell id="EiC9moipADHDzp91dUvz-58" value="argument except command" style="rhombus;whiteSpace=wrap;html=1;" parent="1" vertex="1">
          <mxGeometry x="10" y="540" width="120" height="80" as="geometry" />
        </mxCell>
        <mxCell id="EiC9moipADHDzp91dUvz-98" value="" style="edgeStyle=orthogonalEdgeStyle;rounded=0;orthogonalLoop=1;jettySize=auto;html=1;entryX=0.5;entryY=0;entryDx=0;entryDy=0;" parent="1" source="EiC9moipADHDzp91dUvz-60" target="EiC9moipADHDzp91dUvz-108" edge="1">
          <mxGeometry relative="1" as="geometry">
            <mxPoint x="70" y="820" as="targetPoint" />
            <Array as="points">
              <mxPoint x="70" y="820" />
              <mxPoint x="360" y="820" />
            </Array>
          </mxGeometry>
        </mxCell>
        <mxCell id="EiC9moipADHDzp91dUvz-60" value="LIST" style="rounded=0;whiteSpace=wrap;html=1;" parent="1" vertex="1">
          <mxGeometry x="10" y="650" width="120" height="60" as="geometry" />
        </mxCell>
        <mxCell id="EiC9moipADHDzp91dUvz-67" style="edgeStyle=orthogonalEdgeStyle;rounded=0;orthogonalLoop=1;jettySize=auto;html=1;entryX=0.5;entryY=0;entryDx=0;entryDy=0;" parent="1" source="EiC9moipADHDzp91dUvz-66" target="EiC9moipADHDzp91dUvz-17" edge="1">
          <mxGeometry relative="1" as="geometry">
            <Array as="points">
              <mxPoint x="290" y="580" />
              <mxPoint x="290" y="1100" />
              <mxPoint x="360" y="1100" />
            </Array>
          </mxGeometry>
        </mxCell>
        <mxCell id="EiC9moipADHDzp91dUvz-68" value="&amp;gt; 0" style="edgeLabel;html=1;align=center;verticalAlign=middle;resizable=0;points=[];" parent="EiC9moipADHDzp91dUvz-67" vertex="1" connectable="0">
          <mxGeometry x="-0.975" y="-2" relative="1" as="geometry">
            <mxPoint y="1" as="offset" />
          </mxGeometry>
        </mxCell>
        <mxCell id="EiC9moipADHDzp91dUvz-70" value="" style="edgeStyle=orthogonalEdgeStyle;rounded=0;orthogonalLoop=1;jettySize=auto;html=1;" parent="1" source="EiC9moipADHDzp91dUvz-66" target="EiC9moipADHDzp91dUvz-69" edge="1">
          <mxGeometry relative="1" as="geometry" />
        </mxCell>
        <mxCell id="EiC9moipADHDzp91dUvz-73" value="= 0" style="edgeLabel;html=1;align=center;verticalAlign=middle;resizable=0;points=[];" parent="EiC9moipADHDzp91dUvz-70" vertex="1" connectable="0">
          <mxGeometry x="0.26" y="1" relative="1" as="geometry">
            <mxPoint as="offset" />
          </mxGeometry>
        </mxCell>
        <mxCell id="EiC9moipADHDzp91dUvz-66" value="argument except command" style="rhombus;whiteSpace=wrap;html=1;" parent="1" vertex="1">
          <mxGeometry x="150" y="540" width="120" height="80" as="geometry" />
        </mxCell>
        <mxCell id="EiC9moipADHDzp91dUvz-100" value="" style="edgeStyle=orthogonalEdgeStyle;rounded=0;orthogonalLoop=1;jettySize=auto;html=1;entryX=0.5;entryY=0;entryDx=0;entryDy=0;" parent="1" source="EiC9moipADHDzp91dUvz-69" target="EiC9moipADHDzp91dUvz-108" edge="1">
          <mxGeometry relative="1" as="geometry">
            <mxPoint x="210" y="820" as="targetPoint" />
            <Array as="points">
              <mxPoint x="210" y="820" />
              <mxPoint x="360" y="820" />
            </Array>
          </mxGeometry>
        </mxCell>
        <mxCell id="EiC9moipADHDzp91dUvz-69" value="PWD" style="rounded=0;whiteSpace=wrap;html=1;" parent="1" vertex="1">
          <mxGeometry x="150" y="650" width="120" height="60" as="geometry" />
        </mxCell>
        <mxCell id="EiC9moipADHDzp91dUvz-77" value="" style="edgeStyle=orthogonalEdgeStyle;rounded=0;orthogonalLoop=1;jettySize=auto;html=1;" parent="1" source="EiC9moipADHDzp91dUvz-72" target="EiC9moipADHDzp91dUvz-76" edge="1">
          <mxGeometry relative="1" as="geometry" />
        </mxCell>
        <mxCell id="EiC9moipADHDzp91dUvz-78" value="&amp;nbsp;= 1" style="edgeLabel;html=1;align=center;verticalAlign=middle;resizable=0;points=[];" parent="EiC9moipADHDzp91dUvz-77" vertex="1" connectable="0">
          <mxGeometry x="0.22" y="-3" relative="1" as="geometry">
            <mxPoint as="offset" />
          </mxGeometry>
        </mxCell>
        <mxCell id="EiC9moipADHDzp91dUvz-79" style="edgeStyle=orthogonalEdgeStyle;rounded=0;orthogonalLoop=1;jettySize=auto;html=1;entryX=0.5;entryY=0;entryDx=0;entryDy=0;" parent="1" source="EiC9moipADHDzp91dUvz-72" target="EiC9moipADHDzp91dUvz-17" edge="1">
          <mxGeometry relative="1" as="geometry">
            <Array as="points">
              <mxPoint x="440" y="580" />
              <mxPoint x="440" y="1100" />
              <mxPoint x="360" y="1100" />
            </Array>
          </mxGeometry>
        </mxCell>
        <mxCell id="EiC9moipADHDzp91dUvz-72" value="argument except command" style="rhombus;whiteSpace=wrap;html=1;" parent="1" vertex="1">
          <mxGeometry x="300" y="540" width="120" height="80" as="geometry" />
        </mxCell>
        <mxCell id="EiC9moipADHDzp91dUvz-102" value="" style="edgeStyle=orthogonalEdgeStyle;rounded=0;orthogonalLoop=1;jettySize=auto;html=1;entryX=0.5;entryY=0;entryDx=0;entryDy=0;" parent="1" source="EiC9moipADHDzp91dUvz-76" target="EiC9moipADHDzp91dUvz-108" edge="1">
          <mxGeometry relative="1" as="geometry">
            <mxPoint x="360" y="820" as="targetPoint" />
          </mxGeometry>
        </mxCell>
        <mxCell id="EiC9moipADHDzp91dUvz-76" value="CWD" style="rounded=0;whiteSpace=wrap;html=1;" parent="1" vertex="1">
          <mxGeometry x="300" y="650" width="120" height="60" as="geometry" />
        </mxCell>
        <mxCell id="EiC9moipADHDzp91dUvz-80" value="&amp;gt; 1" style="text;html=1;align=center;verticalAlign=middle;resizable=0;points=[];autosize=1;strokeColor=none;fillColor=none;" parent="1" vertex="1">
          <mxGeometry x="410" y="558" width="40" height="30" as="geometry" />
        </mxCell>
        <mxCell id="EiC9moipADHDzp91dUvz-87" value="" style="edgeStyle=orthogonalEdgeStyle;rounded=0;orthogonalLoop=1;jettySize=auto;html=1;" parent="1" source="EiC9moipADHDzp91dUvz-83" target="EiC9moipADHDzp91dUvz-86" edge="1">
          <mxGeometry relative="1" as="geometry" />
        </mxCell>
        <mxCell id="EiC9moipADHDzp91dUvz-88" value="= 0" style="edgeLabel;html=1;align=center;verticalAlign=middle;resizable=0;points=[];" parent="EiC9moipADHDzp91dUvz-87" vertex="1" connectable="0">
          <mxGeometry x="-0.62" y="-2" relative="1" as="geometry">
            <mxPoint as="offset" />
          </mxGeometry>
        </mxCell>
        <mxCell id="EiC9moipADHDzp91dUvz-89" style="edgeStyle=orthogonalEdgeStyle;rounded=0;orthogonalLoop=1;jettySize=auto;html=1;entryX=0.5;entryY=0;entryDx=0;entryDy=0;" parent="1" source="EiC9moipADHDzp91dUvz-83" target="EiC9moipADHDzp91dUvz-17" edge="1">
          <mxGeometry relative="1" as="geometry">
            <Array as="points">
              <mxPoint x="590" y="580" />
              <mxPoint x="590" y="1100" />
              <mxPoint x="360" y="1100" />
            </Array>
          </mxGeometry>
        </mxCell>
        <mxCell id="EiC9moipADHDzp91dUvz-90" value="&amp;gt; 0" style="edgeLabel;html=1;align=center;verticalAlign=middle;resizable=0;points=[];" parent="EiC9moipADHDzp91dUvz-89" vertex="1" connectable="0">
          <mxGeometry x="-0.9739" y="4" relative="1" as="geometry">
            <mxPoint y="1" as="offset" />
          </mxGeometry>
        </mxCell>
        <mxCell id="EiC9moipADHDzp91dUvz-83" value="argument except command" style="rhombus;whiteSpace=wrap;html=1;" parent="1" vertex="1">
          <mxGeometry x="450" y="540" width="120" height="80" as="geometry" />
        </mxCell>
        <mxCell id="EiC9moipADHDzp91dUvz-104" value="" style="edgeStyle=orthogonalEdgeStyle;rounded=0;orthogonalLoop=1;jettySize=auto;html=1;entryX=0.5;entryY=0;entryDx=0;entryDy=0;" parent="1" source="EiC9moipADHDzp91dUvz-86" target="EiC9moipADHDzp91dUvz-108" edge="1">
          <mxGeometry relative="1" as="geometry">
            <mxPoint x="510" y="820" as="targetPoint" />
            <Array as="points">
              <mxPoint x="510" y="820" />
              <mxPoint x="360" y="820" />
            </Array>
          </mxGeometry>
        </mxCell>
        <mxCell id="EiC9moipADHDzp91dUvz-86" value="CDUP" style="rounded=0;whiteSpace=wrap;html=1;" parent="1" vertex="1">
          <mxGeometry x="450" y="650" width="120" height="60" as="geometry" />
        </mxCell>
        <mxCell id="EiC9moipADHDzp91dUvz-121" style="edgeStyle=orthogonalEdgeStyle;rounded=0;orthogonalLoop=1;jettySize=auto;html=1;entryX=0.5;entryY=0;entryDx=0;entryDy=0;" parent="1" source="EiC9moipADHDzp91dUvz-108" target="EiC9moipADHDzp91dUvz-17" edge="1">
          <mxGeometry relative="1" as="geometry" />
        </mxCell>
        <mxCell id="EiC9moipADHDzp91dUvz-122" value="-1" style="edgeLabel;html=1;align=center;verticalAlign=middle;resizable=0;points=[];" parent="EiC9moipADHDzp91dUvz-121" vertex="1" connectable="0">
          <mxGeometry x="-0.62" y="-1" relative="1" as="geometry">
            <mxPoint as="offset" />
          </mxGeometry>
        </mxCell>
        <mxCell id="EiC9moipADHDzp91dUvz-174" style="edgeStyle=orthogonalEdgeStyle;rounded=0;orthogonalLoop=1;jettySize=auto;html=1;entryX=0.5;entryY=0;entryDx=0;entryDy=0;" parent="1" source="EiC9moipADHDzp91dUvz-108" target="EiC9moipADHDzp91dUvz-172" edge="1">
          <mxGeometry relative="1" as="geometry" />
        </mxCell>
        <mxCell id="EiC9moipADHDzp91dUvz-175" value="0" style="edgeLabel;html=1;align=center;verticalAlign=middle;resizable=0;points=[];" parent="EiC9moipADHDzp91dUvz-174" vertex="1" connectable="0">
          <mxGeometry x="-0.7401" y="4" relative="1" as="geometry">
            <mxPoint x="-36" y="4" as="offset" />
          </mxGeometry>
        </mxCell>
        <mxCell id="EiC9moipADHDzp91dUvz-108" value="return val" style="rhombus;whiteSpace=wrap;html=1;" parent="1" vertex="1">
          <mxGeometry x="300" y="990" width="120" height="80" as="geometry" />
        </mxCell>
        <mxCell id="EiC9moipADHDzp91dUvz-124" style="edgeStyle=orthogonalEdgeStyle;rounded=0;orthogonalLoop=1;jettySize=auto;html=1;entryX=0.5;entryY=0;entryDx=0;entryDy=0;" parent="1" source="EiC9moipADHDzp91dUvz-117" target="EiC9moipADHDzp91dUvz-17" edge="1">
          <mxGeometry relative="1" as="geometry">
            <Array as="points">
              <mxPoint x="740" y="580" />
              <mxPoint x="740" y="1100" />
              <mxPoint x="360" y="1100" />
            </Array>
          </mxGeometry>
        </mxCell>
        <mxCell id="EiC9moipADHDzp91dUvz-125" value="== 0" style="edgeLabel;html=1;align=center;verticalAlign=middle;resizable=0;points=[];" parent="EiC9moipADHDzp91dUvz-124" vertex="1" connectable="0">
          <mxGeometry x="-0.9802" y="-1" relative="1" as="geometry">
            <mxPoint y="1" as="offset" />
          </mxGeometry>
        </mxCell>
        <mxCell id="EiC9moipADHDzp91dUvz-127" value="" style="edgeStyle=orthogonalEdgeStyle;rounded=0;orthogonalLoop=1;jettySize=auto;html=1;" parent="1" source="EiC9moipADHDzp91dUvz-117" target="EiC9moipADHDzp91dUvz-126" edge="1">
          <mxGeometry relative="1" as="geometry" />
        </mxCell>
        <mxCell id="EiC9moipADHDzp91dUvz-128" value="&amp;gt; 0" style="edgeLabel;html=1;align=center;verticalAlign=middle;resizable=0;points=[];" parent="EiC9moipADHDzp91dUvz-127" vertex="1" connectable="0">
          <mxGeometry x="0.5833" y="1" relative="1" as="geometry">
            <mxPoint y="1" as="offset" />
          </mxGeometry>
        </mxCell>
        <mxCell id="EiC9moipADHDzp91dUvz-117" value="argument except command" style="rhombus;whiteSpace=wrap;html=1;" parent="1" vertex="1">
          <mxGeometry x="600" y="540" width="120" height="80" as="geometry" />
        </mxCell>
        <mxCell id="EiC9moipADHDzp91dUvz-130" value="" style="edgeStyle=orthogonalEdgeStyle;rounded=0;orthogonalLoop=1;jettySize=auto;html=1;" parent="1" source="EiC9moipADHDzp91dUvz-126" target="EiC9moipADHDzp91dUvz-129" edge="1">
          <mxGeometry relative="1" as="geometry" />
        </mxCell>
        <mxCell id="EiC9moipADHDzp91dUvz-133" value="No" style="edgeLabel;html=1;align=center;verticalAlign=middle;resizable=0;points=[];" parent="EiC9moipADHDzp91dUvz-130" vertex="1" connectable="0">
          <mxGeometry x="0.5167" y="3" relative="1" as="geometry">
            <mxPoint as="offset" />
          </mxGeometry>
        </mxCell>
        <mxCell id="EiC9moipADHDzp91dUvz-126" value="&lt;div&gt;is it&lt;/div&gt;last argument&lt;div&gt;in argv[]?&lt;/div&gt;" style="rhombus;whiteSpace=wrap;html=1;" parent="1" vertex="1">
          <mxGeometry x="600" y="640" width="120" height="80" as="geometry" />
        </mxCell>
        <mxCell id="EiC9moipADHDzp91dUvz-132" style="edgeStyle=orthogonalEdgeStyle;rounded=0;orthogonalLoop=1;jettySize=auto;html=1;entryX=1;entryY=0.5;entryDx=0;entryDy=0;" parent="1" source="EiC9moipADHDzp91dUvz-129" target="EiC9moipADHDzp91dUvz-126" edge="1">
          <mxGeometry relative="1" as="geometry">
            <Array as="points">
              <mxPoint x="730" y="770" />
              <mxPoint x="730" y="680" />
            </Array>
          </mxGeometry>
        </mxCell>
        <mxCell id="EiC9moipADHDzp91dUvz-129" value="MKD" style="rounded=0;whiteSpace=wrap;html=1;" parent="1" vertex="1">
          <mxGeometry x="600" y="740" width="120" height="60" as="geometry" />
        </mxCell>
        <mxCell id="EiC9moipADHDzp91dUvz-177" style="edgeStyle=orthogonalEdgeStyle;rounded=0;orthogonalLoop=1;jettySize=auto;html=1;entryX=0.5;entryY=0;entryDx=0;entryDy=0;exitX=0;exitY=0.5;exitDx=0;exitDy=0;" parent="1" source="EiC9moipADHDzp91dUvz-126" target="EiC9moipADHDzp91dUvz-172" edge="1">
          <mxGeometry relative="1" as="geometry">
            <Array as="points">
              <mxPoint x="580" y="680" />
              <mxPoint x="580" y="1030" />
              <mxPoint x="490" y="1030" />
            </Array>
            <mxPoint x="660.04347826087" y="880" as="sourcePoint" />
          </mxGeometry>
        </mxCell>
        <mxCell id="EiC9moipADHDzp91dUvz-157" value="== 0" style="edgeLabel;html=1;align=center;verticalAlign=middle;resizable=0;points=[];" parent="1" vertex="1" connectable="0">
          <mxGeometry x="899" y="582" as="geometry" />
        </mxCell>
        <mxCell id="EiC9moipADHDzp91dUvz-158" value="" style="edgeStyle=orthogonalEdgeStyle;rounded=0;orthogonalLoop=1;jettySize=auto;html=1;" parent="1" source="EiC9moipADHDzp91dUvz-160" target="EiC9moipADHDzp91dUvz-164" edge="1">
          <mxGeometry relative="1" as="geometry" />
        </mxCell>
        <mxCell id="EiC9moipADHDzp91dUvz-159" value="&amp;gt; 0" style="edgeLabel;html=1;align=center;verticalAlign=middle;resizable=0;points=[];" parent="EiC9moipADHDzp91dUvz-158" vertex="1" connectable="0">
          <mxGeometry x="0.5833" y="1" relative="1" as="geometry">
            <mxPoint y="1" as="offset" />
          </mxGeometry>
        </mxCell>
        <mxCell id="EiC9moipADHDzp91dUvz-171" style="edgeStyle=orthogonalEdgeStyle;rounded=0;orthogonalLoop=1;jettySize=auto;html=1;entryX=0.5;entryY=0;entryDx=0;entryDy=0;" parent="1" source="EiC9moipADHDzp91dUvz-160" target="EiC9moipADHDzp91dUvz-17" edge="1">
          <mxGeometry relative="1" as="geometry">
            <Array as="points">
              <mxPoint x="910" y="580" />
              <mxPoint x="910" y="1100" />
              <mxPoint x="360" y="1100" />
            </Array>
          </mxGeometry>
        </mxCell>
        <mxCell id="EiC9moipADHDzp91dUvz-160" value="argument except command" style="rhombus;whiteSpace=wrap;html=1;" parent="1" vertex="1">
          <mxGeometry x="770" y="540" width="120" height="80" as="geometry" />
        </mxCell>
        <mxCell id="EiC9moipADHDzp91dUvz-161" value="" style="edgeStyle=orthogonalEdgeStyle;rounded=0;orthogonalLoop=1;jettySize=auto;html=1;" parent="1" source="EiC9moipADHDzp91dUvz-164" target="EiC9moipADHDzp91dUvz-166" edge="1">
          <mxGeometry relative="1" as="geometry" />
        </mxCell>
        <mxCell id="EiC9moipADHDzp91dUvz-162" value="No" style="edgeLabel;html=1;align=center;verticalAlign=middle;resizable=0;points=[];" parent="EiC9moipADHDzp91dUvz-161" vertex="1" connectable="0">
          <mxGeometry x="0.5167" y="3" relative="1" as="geometry">
            <mxPoint as="offset" />
          </mxGeometry>
        </mxCell>
        <mxCell id="EiC9moipADHDzp91dUvz-164" value="&lt;div&gt;is it&lt;/div&gt;last argument&lt;div&gt;in argv[]?&lt;/div&gt;" style="rhombus;whiteSpace=wrap;html=1;" parent="1" vertex="1">
          <mxGeometry x="770" y="640" width="120" height="80" as="geometry" />
        </mxCell>
        <mxCell id="EiC9moipADHDzp91dUvz-165" style="edgeStyle=orthogonalEdgeStyle;rounded=0;orthogonalLoop=1;jettySize=auto;html=1;entryX=1;entryY=0.5;entryDx=0;entryDy=0;" parent="1" source="EiC9moipADHDzp91dUvz-166" target="EiC9moipADHDzp91dUvz-164" edge="1">
          <mxGeometry relative="1" as="geometry">
            <Array as="points">
              <mxPoint x="900" y="770" />
              <mxPoint x="900" y="680" />
            </Array>
          </mxGeometry>
        </mxCell>
        <mxCell id="EiC9moipADHDzp91dUvz-166" value="DELE" style="rounded=0;whiteSpace=wrap;html=1;" parent="1" vertex="1">
          <mxGeometry x="770" y="740" width="120" height="60" as="geometry" />
        </mxCell>
        <mxCell id="EiC9moipADHDzp91dUvz-178" style="edgeStyle=orthogonalEdgeStyle;rounded=0;orthogonalLoop=1;jettySize=auto;html=1;entryX=0.5;entryY=0;entryDx=0;entryDy=0;exitX=0;exitY=0.5;exitDx=0;exitDy=0;" parent="1" source="EiC9moipADHDzp91dUvz-164" target="EiC9moipADHDzp91dUvz-172" edge="1">
          <mxGeometry relative="1" as="geometry">
            <Array as="points">
              <mxPoint x="750" y="680" />
              <mxPoint x="750" y="1030" />
              <mxPoint x="490" y="1030" />
            </Array>
            <mxPoint x="829.9565217391305" y="880" as="sourcePoint" />
          </mxGeometry>
        </mxCell>
        <mxCell id="EiC9moipADHDzp91dUvz-172" value="end" style="rounded=1;whiteSpace=wrap;html=1;" parent="1" vertex="1">
          <mxGeometry x="430" y="1320" width="120" height="60" as="geometry" />
        </mxCell>
        <mxCell id="EiC9moipADHDzp91dUvz-179" value="RMD" style="edgeLabel;html=1;align=center;verticalAlign=middle;resizable=0;points=[];" parent="1" vertex="1" connectable="0">
          <mxGeometry x="999.0000000000005" y="559.8235294117644" as="geometry" />
        </mxCell>
        <mxCell id="EiC9moipADHDzp91dUvz-180" value="== 0" style="edgeLabel;html=1;align=center;verticalAlign=middle;resizable=0;points=[];" parent="1" vertex="1" connectable="0">
          <mxGeometry x="1069" y="582" as="geometry" />
        </mxCell>
        <mxCell id="EiC9moipADHDzp91dUvz-181" value="" style="edgeStyle=orthogonalEdgeStyle;rounded=0;orthogonalLoop=1;jettySize=auto;html=1;" parent="1" source="EiC9moipADHDzp91dUvz-183" target="EiC9moipADHDzp91dUvz-187" edge="1">
          <mxGeometry relative="1" as="geometry" />
        </mxCell>
        <mxCell id="EiC9moipADHDzp91dUvz-182" value="&amp;gt; 0" style="edgeLabel;html=1;align=center;verticalAlign=middle;resizable=0;points=[];" parent="EiC9moipADHDzp91dUvz-181" vertex="1" connectable="0">
          <mxGeometry x="0.5833" y="1" relative="1" as="geometry">
            <mxPoint y="1" as="offset" />
          </mxGeometry>
        </mxCell>
        <mxCell id="EiC9moipADHDzp91dUvz-192" style="edgeStyle=orthogonalEdgeStyle;rounded=0;orthogonalLoop=1;jettySize=auto;html=1;entryX=0.5;entryY=0;entryDx=0;entryDy=0;" parent="1" source="EiC9moipADHDzp91dUvz-183" target="EiC9moipADHDzp91dUvz-17" edge="1">
          <mxGeometry relative="1" as="geometry">
            <Array as="points">
              <mxPoint x="1080" y="580" />
              <mxPoint x="1080" y="1100" />
              <mxPoint x="360" y="1100" />
            </Array>
          </mxGeometry>
        </mxCell>
        <mxCell id="EiC9moipADHDzp91dUvz-183" value="argument except command" style="rhombus;whiteSpace=wrap;html=1;" parent="1" vertex="1">
          <mxGeometry x="940" y="540" width="120" height="80" as="geometry" />
        </mxCell>
        <mxCell id="EiC9moipADHDzp91dUvz-184" value="" style="edgeStyle=orthogonalEdgeStyle;rounded=0;orthogonalLoop=1;jettySize=auto;html=1;" parent="1" source="EiC9moipADHDzp91dUvz-187" target="EiC9moipADHDzp91dUvz-189" edge="1">
          <mxGeometry relative="1" as="geometry" />
        </mxCell>
        <mxCell id="EiC9moipADHDzp91dUvz-185" value="No" style="edgeLabel;html=1;align=center;verticalAlign=middle;resizable=0;points=[];" parent="EiC9moipADHDzp91dUvz-184" vertex="1" connectable="0">
          <mxGeometry x="0.5167" y="3" relative="1" as="geometry">
            <mxPoint as="offset" />
          </mxGeometry>
        </mxCell>
        <mxCell id="EiC9moipADHDzp91dUvz-187" value="&lt;div&gt;is it&lt;/div&gt;last argument&lt;div&gt;in argv[]?&lt;/div&gt;" style="rhombus;whiteSpace=wrap;html=1;" parent="1" vertex="1">
          <mxGeometry x="940" y="640" width="120" height="80" as="geometry" />
        </mxCell>
        <mxCell id="EiC9moipADHDzp91dUvz-188" style="edgeStyle=orthogonalEdgeStyle;rounded=0;orthogonalLoop=1;jettySize=auto;html=1;entryX=1;entryY=0.5;entryDx=0;entryDy=0;" parent="1" source="EiC9moipADHDzp91dUvz-189" target="EiC9moipADHDzp91dUvz-187" edge="1">
          <mxGeometry relative="1" as="geometry">
            <Array as="points">
              <mxPoint x="1070" y="770" />
              <mxPoint x="1070" y="680" />
            </Array>
          </mxGeometry>
        </mxCell>
        <mxCell id="EiC9moipADHDzp91dUvz-189" value="RMD" style="rounded=0;whiteSpace=wrap;html=1;" parent="1" vertex="1">
          <mxGeometry x="940" y="740" width="120" height="60" as="geometry" />
        </mxCell>
        <mxCell id="EiC9moipADHDzp91dUvz-194" style="edgeStyle=orthogonalEdgeStyle;rounded=0;orthogonalLoop=1;jettySize=auto;html=1;entryX=0.5;entryY=0;entryDx=0;entryDy=0;exitX=0;exitY=0.5;exitDx=0;exitDy=0;" parent="1" source="EiC9moipADHDzp91dUvz-187" target="EiC9moipADHDzp91dUvz-172" edge="1">
          <mxGeometry relative="1" as="geometry">
            <Array as="points">
              <mxPoint x="920" y="680" />
              <mxPoint x="920" y="1030" />
              <mxPoint x="490" y="1030" />
            </Array>
            <mxPoint x="999.9565217391305" y="880" as="sourcePoint" />
          </mxGeometry>
        </mxCell>
        <mxCell id="EiC9moipADHDzp91dUvz-195" value="RN" style="rounded=0;whiteSpace=wrap;html=1;" parent="1" vertex="1">
          <mxGeometry x="1090" y="740" width="120" height="60" as="geometry" />
        </mxCell>
        <mxCell id="EiC9moipADHDzp91dUvz-204" style="edgeStyle=orthogonalEdgeStyle;rounded=0;orthogonalLoop=1;jettySize=auto;html=1;entryX=0.5;entryY=0;entryDx=0;entryDy=0;exitX=0.5;exitY=1;exitDx=0;exitDy=0;" parent="1" source="EiC9moipADHDzp91dUvz-195" target="EiC9moipADHDzp91dUvz-172" edge="1">
          <mxGeometry relative="1" as="geometry">
            <Array as="points">
              <mxPoint x="1150" y="1030" />
              <mxPoint x="490" y="1030" />
            </Array>
            <mxPoint x="1149.9565217391305" y="880" as="sourcePoint" />
          </mxGeometry>
        </mxCell>
        <mxCell id="EiC9moipADHDzp91dUvz-202" value="" style="edgeStyle=orthogonalEdgeStyle;rounded=0;orthogonalLoop=1;jettySize=auto;html=1;" parent="1" source="EiC9moipADHDzp91dUvz-198" target="EiC9moipADHDzp91dUvz-195" edge="1">
          <mxGeometry relative="1" as="geometry" />
        </mxCell>
        <mxCell id="EiC9moipADHDzp91dUvz-205" style="edgeStyle=orthogonalEdgeStyle;rounded=0;orthogonalLoop=1;jettySize=auto;html=1;entryX=0.5;entryY=0;entryDx=0;entryDy=0;" parent="1" source="EiC9moipADHDzp91dUvz-198" target="EiC9moipADHDzp91dUvz-17" edge="1">
          <mxGeometry relative="1" as="geometry">
            <Array as="points">
              <mxPoint x="1230" y="582" />
              <mxPoint x="1230" y="1100" />
              <mxPoint x="360" y="1100" />
            </Array>
          </mxGeometry>
        </mxCell>
        <mxCell id="EiC9moipADHDzp91dUvz-206" value="!= 3" style="edgeLabel;html=1;align=center;verticalAlign=middle;resizable=0;points=[];" parent="EiC9moipADHDzp91dUvz-205" vertex="1" connectable="0">
          <mxGeometry x="-0.9837" y="-4" relative="1" as="geometry">
            <mxPoint as="offset" />
          </mxGeometry>
        </mxCell>
        <mxCell id="EiC9moipADHDzp91dUvz-198" value="argument except command" style="rhombus;whiteSpace=wrap;html=1;" parent="1" vertex="1">
          <mxGeometry x="1090" y="542" width="120" height="80" as="geometry" />
        </mxCell>
        <mxCell id="EiC9moipADHDzp91dUvz-215" value="exit(0)" style="shape=parallelogram;perimeter=parallelogramPerimeter;whiteSpace=wrap;html=1;fixedSize=1;" parent="1" vertex="1">
          <mxGeometry x="430" y="1200" width="120" height="60" as="geometry" />
        </mxCell>
        <mxCell id="kNfA8dKr2ghfX7-vtaWR-3" style="edgeStyle=orthogonalEdgeStyle;rounded=0;orthogonalLoop=1;jettySize=auto;html=1;exitX=0.5;exitY=1;exitDx=0;exitDy=0;entryX=0.5;entryY=0;entryDx=0;entryDy=0;" edge="1" parent="1" source="kNfA8dKr2ghfX7-vtaWR-1" target="EiC9moipADHDzp91dUvz-29">
          <mxGeometry relative="1" as="geometry" />
        </mxCell>
        <mxCell id="kNfA8dKr2ghfX7-vtaWR-8" value="no" style="edgeLabel;html=1;align=center;verticalAlign=middle;resizable=0;points=[];" vertex="1" connectable="0" parent="kNfA8dKr2ghfX7-vtaWR-3">
          <mxGeometry x="-0.2688" y="-3" relative="1" as="geometry">
            <mxPoint as="offset" />
          </mxGeometry>
        </mxCell>
        <mxCell id="kNfA8dKr2ghfX7-vtaWR-4" style="edgeStyle=orthogonalEdgeStyle;rounded=0;orthogonalLoop=1;jettySize=auto;html=1;entryX=1;entryY=0.5;entryDx=0;entryDy=0;" edge="1" parent="1" source="kNfA8dKr2ghfX7-vtaWR-1" target="EiC9moipADHDzp91dUvz-17">
          <mxGeometry relative="1" as="geometry">
            <Array as="points">
              <mxPoint x="1260" y="350" />
              <mxPoint x="1260" y="1150" />
            </Array>
          </mxGeometry>
        </mxCell>
        <mxCell id="kNfA8dKr2ghfX7-vtaWR-7" value="yes" style="edgeLabel;html=1;align=center;verticalAlign=middle;resizable=0;points=[];" vertex="1" connectable="0" parent="kNfA8dKr2ghfX7-vtaWR-4">
          <mxGeometry x="-0.9734" y="2" relative="1" as="geometry">
            <mxPoint x="1" as="offset" />
          </mxGeometry>
        </mxCell>
        <mxCell id="kNfA8dKr2ghfX7-vtaWR-1" value="no input ||&lt;div&gt;wrong command ||&lt;/div&gt;&lt;div&gt;invalid option&lt;/div&gt;" style="rhombus;whiteSpace=wrap;html=1;" vertex="1" parent="1">
          <mxGeometry x="320" y="310" width="120" height="80" as="geometry" />
        </mxCell>
        <mxCell id="kNfA8dKr2ghfX7-vtaWR-11" value="&amp;gt; 1" style="edgeLabel;html=1;align=center;verticalAlign=middle;resizable=0;points=[];" vertex="1" connectable="0" parent="1">
          <mxGeometry x="139.99521739130472" y="569.9965217391305" as="geometry" />
        </mxCell>
      </root>
    </mxGraphModel>
  </diagram>
</mxfile>
